<svg xmlns="http://www.w3.org/2000/svg" width="655.359" height="655.359" fill-rule="evenodd" clip-rule="evenodd" image-rendering="optimizeQuality" shape-rendering="geometricPrecision" text-rendering="geometricPrecision" viewBox="0 0 6.827 6.827" id="cloud">
  <path fill="#90a4ae" d="M2.004 3.344a.178.178 0 0 0 .01-.02 1.11 1.11 0 0 1-.072-.395c0-.301.12-.586.334-.797.216-.213.505-.33.808-.33.26 0 .512.086.716.249a1.096 1.096 0 0 1 .4.638.557.557 0 0 1 .462-.175.613.613 0 0 1 .472.31.522.522 0 0 1 .015.475l.002.003c.222.013.43.108.584.268a.853.853 0 0 1-.017 1.202.878.878 0 0 1-.618.253H1.727a.878.878 0 0 1-.618-.253.854.854 0 0 1 0-1.219.878.878 0 0 1 .77-.24l.04.007c.029.006.057.014.085.024z"></path>
  <path fill="none" d="M0 0h6.827v6.827H0z"></path>
</svg>
