<svg xmlns="http://www.w3.org/2000/svg" width="24" height="24" fill="none" viewBox="0 0 24 24" id="dashboard">
  <path fill="#000" fill-rule="evenodd" d="M1 13C1 6.92487 5.92487 2 12 2C18.0751 2 23 6.92487 23 13C23 16.3347 21.5149 19.3236 19.1735 21.3394C18.638 21.8003 17.9701 22 17.3334 22H6.66752C6.03088 22 5.36303 21.8004 4.82762 21.3396C2.4858 19.3239 1 16.3351 1 13ZM6.3823 5.96811C7.67707 4.93238 9.26414 4.24682 11 4.05493V6C11 6.55228 11.4477 7 12 7C12.5523 7 13 6.55228 13 6V4.05493C17.1716 4.51608 20.4839 7.82838 20.9451 12H19C18.4477 12 18 12.4477 18 13C18 13.5523 18.4477 14 19 14H20.9451C20.6887 16.3214 19.5498 18.3764 17.8686 19.8237C17.7473 19.9281 17.5633 20 17.3334 20H6.66752C6.43762 20 6.25367 19.9282 6.13232 19.8237C4.45076 18.3764 3.31142 16.3215 3.0549 14H5C5.55228 14 6 13.5523 6 13C6 12.4477 5.55228 12 5 12H3.05493C3.24682 10.2642 3.93237 8.67709 4.96809 7.38233L6.29289 8.70714C6.68342 9.09766 7.31658 9.09766 7.70711 8.70714C8.09763 8.31661 8.09763 7.68345 7.70711 7.29292L6.3823 5.96811ZM14 13C14 12.8208 13.9764 12.6472 13.9323 12.482L16.7071 9.70711C17.0976 9.31658 17.0976 8.68342 16.7071 8.29289C16.3166 7.90237 15.6834 7.90237 15.2929 8.29289L12.518 11.0677C12.3528 11.0236 12.1792 11 12 11C10.8954 11 10 11.8954 10 13C10 14.1046 10.8954 15 12 15C13.1046 15 14 14.1046 14 13Z" clip-rule="evenodd"></path>
</svg>
