<svg xmlns="http://www.w3.org/2000/svg" viewBox="0 0 512 512" id="rain">
  <path fill="#1a6fb0" d="M184.715 373.253c0 8.655-7.017 15.672-15.672 15.672-8.655 0-15.672-7.017-15.672-15.672 0-8.655 15.672-25.958 15.672-25.958s15.672 17.302 15.672 25.958zm175.596 0c0 8.655-7.017 15.672-15.672 15.672-8.655 0-15.672-7.017-15.672-15.672 0-8.655 15.672-25.958 15.672-25.958s15.672 17.302 15.672 25.958zm-87.798 45.727c0 8.655-7.017 15.672-15.672 15.672-8.655 0-15.672-7.017-15.672-15.672 0-8.655 15.672-25.958 15.672-25.958s15.672 17.303 15.672 25.958zm180.312-251.752c-5.958 0-11.705.89-17.128 2.527.001-.166.013-.329.013-.496 0-50.762-41.15-91.912-91.912-91.912s-91.912 41.15-91.912 91.912c0 .166.011.33.013.496a59.135 59.135 0 0 0-17.128-2.527c-32.681 0-59.174 26.494-59.174 59.174s26.494 59.174 59.174 59.174h218.054c32.681 0 59.174-26.494 59.174-59.174s-26.493-59.174-59.174-59.174z"></path>
  <path fill="#1a6fb0" d="M277.229 167.228c-5.958 0-11.705.89-17.128 2.527.001-.166.013-.329.013-.496 0-50.762-41.15-91.912-91.912-91.912s-91.912 41.15-91.912 91.912c0 .166.011.33.013.496a59.135 59.135 0 0 0-17.128-2.527C26.494 167.228 0 193.722 0 226.404s26.494 59.174 59.174 59.174h218.054c32.681 0 59.174-26.494 59.174-59.174s-26.491-59.176-59.173-59.176z"></path>
  <path fill="#d1e7f8" d="M364.563 181.978c-5.958 0-11.705.89-17.128 2.527.001-.166.013-.329.013-.496 0-50.762-41.15-91.912-91.912-91.912s-91.912 41.15-91.912 91.912c0 .166.012.33.013.496a59.135 59.135 0 0 0-17.128-2.527c-32.681 0-59.174 26.494-59.174 59.174s26.494 59.174 59.174 59.174h218.054c32.681 0 59.174-26.493 59.174-59.174s-26.493-59.174-59.174-59.174z"></path>
  <path fill="#96c8ef" d="M188.912 219.809c5.958 0 11.705.889 17.128 2.527-.001-.166-.013-.329-.013-.496 0-50.762 41.15-91.912 91.912-91.912 13.161 0 25.671 2.772 36.99 7.754-15.944-27.266-45.527-45.585-79.393-45.585-50.762 0-91.912 41.15-91.912 91.912 0 .166.012.33.013.496a59.14 59.14 0 0 0-17.128-2.527c-32.681 0-59.174 26.494-59.174 59.176 0 28.084 19.571 51.581 45.812 57.641a59.055 59.055 0 0 1-3.409-19.81c0-32.683 26.493-59.176 59.174-59.176z"></path>
  <path fill="#97c7ed" d="M292.365 272.346H183.874c-4.328 0-7.836-3.507-7.836-7.836s3.509-7.836 7.836-7.836h108.49c4.328 0 7.836 3.507 7.836 7.836s-3.507 7.836-7.835 7.836zm61.644 0h-25.883c-4.328 0-7.836-3.507-7.836-7.836s3.509-7.836 7.836-7.836h25.883c4.328 0 7.836 3.507 7.836 7.836s-3.508 7.836-7.836 7.836z"></path>
</svg>
