<svg xmlns="http://www.w3.org/2000/svg" viewBox="0 0 512 512" id="rainbow">
  <g>
    <g>
      <path fill="#ec6a46" d="M442.96,289.19c-14.91,3.61-25.2,8.75-41.69,11.84a145.28,145.28,0,0,0-290.54,0c-16.5-3.09-26.78-8.23-41.69-11.84A187.445,187.445,0,0,1,256,115.3C354.97,115.3,436.02,192,442.96,289.19Z"></path>
      <path fill="#00efd1" d="M401.27,301.03a173.372,173.372,0,0,1-32.25,2.65c-7.02,0-13.17-.29-18.66-.79l.01-.14a94.37,94.37,0,1,0-188.74,0l.01.14c-5.49.5-11.65.79-18.67.79a173.254,173.254,0,0,1-32.24-2.65,145.28,145.28,0,0,1,290.54,0Z"></path>
      <path fill="#00acea" d="M350.37,302.75l-.01.14c-18.28-1.67-29.3-5.74-41.05-9.56a54.135,54.135,0,0,0-106.62,0c-11.75,3.82-22.77,7.88-41.05,9.56l-.01-.14a94.37,94.37,0,1,1,188.74,0Z"></path>
      <path fill="#fedb41" d="M256,248.61a54.133,54.133,0,0,1,53.31,44.72c-13.14-4.28-27.18-8.26-53.31-8.26s-40.17,3.97-53.31,8.26A54.124,54.124,0,0,1,256,248.61Z"></path>
    </g>
    <g>
      <path fill="#f4b844" d="M482.05 277.07c-15.7 0-28.72 1.38-40.973 4.345-6.683 1.618-12.459 3.521-18.044 5.362a169.6 169.6 0 0 1-23.232 6.389 167.353 167.353 0 0 1-30.781 2.514c-6.475 0-12.341-.247-17.932-.757-15.675-1.432-25.556-4.682-36.016-8.123q-1.641-.54-3.285-1.076c-14-4.561-28.8-8.654-55.787-8.654-27.043 0-41.822 4.094-55.783 8.652-1.085.352-2.162.707-3.24 1.061-10.474 3.445-20.367 6.7-36.062 8.14-5.517.5-11.554.757-17.945.757a167.142 167.142 0 0 1-30.767-2.513 169.342 169.342 0 0 1-23.244-6.392c-5.582-1.84-11.354-3.743-18.038-5.361-12.251-2.964-25.27-4.344-40.971-4.344a8 8 0 1 0 0 16c14.4 0 26.223 1.238 37.208 3.895 6.052 1.466 11.269 3.185 16.792 5.006a184.847 184.847 0 0 0 25.31 6.923 182.807 182.807 0 0 0 33.71 2.786c6.874 0 13.4-.277 19.4-.824 17.51-1.609 28.741-5.3 39.6-8.874 1.061-.348 2.122-.7 3.2-1.047 13.18-4.3 26.1-7.865 50.827-7.865 24.674 0 37.619 3.562 50.836 7.868 1.083.352 2.159.707 3.236 1.061 10.851 3.569 22.072 7.26 39.563 8.858 6.08.554 12.421.823 19.385.823a183.006 183.006 0 0 0 33.723-2.787 184.981 184.981 0 0 0 25.3-6.92c5.525-1.822 10.745-3.542 16.8-5.007 10.986-2.658 22.809-3.9 37.209-3.9a8 8 0 0 0 0-16zM454.14 323.58c-26.217 0-39.5 4.99-52.342 9.816-12.039 4.522-23.409 8.794-46.728 8.794s-34.688-4.272-46.726-8.794c-12.847-4.826-26.131-9.816-52.354-9.816s-39.5 4.99-52.343 9.816c-12.038 4.522-23.409 8.794-46.727 8.794s-34.68-4.272-46.716-8.794C97.36 328.57 84.079 323.58 57.86 323.58a8 8 0 0 0 0 16c23.312 0 34.681 4.272 46.716 8.794 12.844 4.826 26.126 9.816 52.344 9.816s39.508-4.991 52.354-9.817c12.037-4.522 23.406-8.793 46.716-8.793s34.689 4.272 46.727 8.794c12.846 4.826 26.131 9.816 52.353 9.816s39.508-4.991 52.355-9.817c12.036-4.522 23.4-8.793 46.715-8.793a8 8 0 0 0 0-16zM426.24 370.1c-22.952 0-34.549 5.068-45.764 9.97-10.156 4.438-19.748 8.63-39.356 8.63s-29.2-4.192-39.356-8.63c-11.217-4.9-22.817-9.97-45.774-9.97s-34.54 5.068-45.754 9.969c-10.155 4.439-19.747 8.631-39.356 8.631s-29.2-4.192-39.357-8.63c-11.214-4.9-22.812-9.97-45.763-9.97a8 8 0 1 0 0 16c19.608 0 29.2 4.192 39.356 8.63 11.215 4.9 22.812 9.97 45.764 9.97s34.55-5.069 45.765-9.97c10.153-4.438 19.743-8.63 39.345-8.63s29.209 4.193 39.366 8.631c11.216 4.9 22.813 9.969 45.764 9.969s34.548-5.068 45.763-9.969c10.156-4.439 19.749-8.631 39.357-8.631a8 8 0 0 0 0-16z"></path>
    </g>
  </g>
</svg>
