<svg xmlns="http://www.w3.org/2000/svg" width="476pt" height="476pt" viewBox="-31 0 476 476.859" id="thunder-rain">
  <path fill="#00acea" d="M414.938 187.344a69.427 69.427 0 0 0-69.57-69.832 68.68 68.68 0 0 0-13.36 1.02c.012-.489.012-.97.012-1.47-.09-58.46-43.235-107.921-101.141-115.949C172.977-6.918 118 28.933 102.004 85.164c-50.66 5.914-90.215 49.137-90.215 101.387v.043s.469-.25.48.75h-.011a80.921 80.921 0 0 0 23.754 57.36 80.92 80.92 0 0 0 57.406 23.64h240.57a81.035 81.035 0 0 0 57.375-23.676 81.01 81.01 0 0 0 23.785-57.324zm0 0"></path>
  <path fill="#f4b844" d="M22.516 363.86c-4.141-1.532-8.746.581-10.278 4.726L.926 399.133a8.002 8.002 0 0 0 15.008 5.559l11.308-30.551a8.004 8.004 0 0 0-4.726-10.282zm70.148 0a8 8 0 0 0-10.277 4.726l-11.309 30.547a8.001 8.001 0 1 0 15 5.559l11.313-30.551c1.535-4.141-.582-8.746-4.727-10.282zm54.414 45.554a7.996 7.996 0 0 0 10.281-4.723l11.32-30.55c1.442-4.114-.679-8.625-4.769-10.141s-8.637.523-10.23 4.582l-11.32 30.55a8.001 8.001 0 0 0 4.718 10.282zm70.152 0a8.003 8.003 0 0 0 6.118-.226 8.007 8.007 0 0 0 4.164-4.497l11.32-30.55A8.001 8.001 0 0 0 234.059 364a7.999 7.999 0 0 0-10.227 4.582l-11.32 30.55a8 8 0 0 0 4.718 10.282zm71.278 0a7.996 7.996 0 0 0 10.281-4.723l11.32-30.55c1.442-4.114-.683-8.625-4.77-10.141a8.002 8.002 0 0 0-10.23 4.582l-11.32 30.55a8.001 8.001 0 0 0 4.719 10.282zm87.031-45.55a8 8 0 0 0-10.281 4.718l-11.32 30.55a8 8 0 1 0 15 5.56l11.32-30.551a7.997 7.997 0 0 0-4.719-10.278zM38.688 430.632c-4.141-1.535-8.743.578-10.282 4.719l-11.316 30.55a8 8 0 1 0 15 5.559l11.32-30.547a7.999 7.999 0 0 0-4.722-10.281zm63.554 40.828 11.317-30.547a7.998 7.998 0 0 0-8.84-10.797 8.005 8.005 0 0 0-6.16 5.235l-11.32 30.55a8 8 0 0 0 1.261 7.985 7.998 7.998 0 0 0 13.738-2.426zm60.996 4.723a8.014 8.014 0 0 0 6.121-.227 7.987 7.987 0 0 0 4.16-4.496l11.32-30.547a8.002 8.002 0 0 0-15-5.563l-11.32 30.551a8.001 8.001 0 0 0 4.72 10.282zm70.153 0a8.004 8.004 0 0 0 6.117-.227 8.007 8.007 0 0 0 4.164-4.496l11.316-30.547c1.442-4.117-.68-8.629-4.77-10.144s-8.64.523-10.23 4.582l-11.32 30.55a7.999 7.999 0 0 0 4.723 10.282zm88.156-45.555a8.004 8.004 0 0 0-10.281 4.726l-11.309 30.551a7.997 7.997 0 0 0 4.723 10.278 8.002 8.002 0 0 0 10.28-4.723l11.31-30.55a8.002 8.002 0 0 0-4.723-10.282zm70.148 0a8.004 8.004 0 0 0-10.28 4.726l-11.31 30.551a8.002 8.002 0 0 0 8.844 10.828 8.003 8.003 0 0 0 6.156-5.273l11.31-30.55c1.534-4.141-.58-8.743-4.72-10.282zm0 0"></path>
  <path fill="#fedb41" d="m268.938 259.633-5.38 8.808-73.78 120.743 4.69-80.211h-36l3.77-40.391 5.903-63.281h79.328l-22.41 54.332zm0 0"></path>
</svg>
