<svg xmlns="http://www.w3.org/2000/svg" viewBox="0 0 64 64" id="windmill">
  <path d="M55.5 25.51H45V14L31 3v10.47H19.47l-11 14H19V39l12 9.47V61h2V39.53h11.53ZM33 7l10.13 7.92v10.6h-5.27a.19.19 0 0 0 0-.07 6.51 6.51 0 0 0-.19-.79 1.12 1.12 0 0 1 0-.13 6 6 0 0 0-.29-.68l-.06-.12a5.79 5.79 0 0 0-.42-.67.76.76 0 0 0-.11-.14 4.45 4.45 0 0 0-.53-.62 7.72 7.72 0 0 0-.61-.53l-.14-.1a7.74 7.74 0 0 0-.68-.42l-.12-.06a5.72 5.72 0 0 0-.71-.29h-.13a7 7 0 0 0-.79-.2H33V7Zm-1 23.5a4 4 0 1 1 4-4 4 4 0 0 1-4 3.99Zm-19.49-5 7.92-10.1H31v5.23h-.08a7 7 0 0 0-.79.2H30a5.79 5.79 0 0 0-.68.29h-.11a7.74 7.74 0 0 0-.68.42l-.14.11a5.86 5.86 0 0 0-1.14 1.14l-.1.14a4.69 4.69 0 0 0-.42.67l-.06.12c-.11.22-.2.44-.29.67v.14a5.08 5.08 0 0 0-.2.79.64.64 0 0 0 0 .07H12.5ZM31 46l-10.1-7.92V27.45h5.22a.24.24 0 0 0 0 .08 6.51 6.51 0 0 0 .19.79.78.78 0 0 1 0 .14 6.76 6.76 0 0 0 .29.67l.06.12a4.29 4.29 0 0 0 .42.68l.1.14a5.25 5.25 0 0 0 .53.62 7.72 7.72 0 0 0 .61.53l.14.1a6 6 0 0 0 .68.43l.11.05a5.79 5.79 0 0 0 .68.29h.13a7 7 0 0 0 .79.2h.08V46Zm2-8.42v-5.22h.08a7 7 0 0 0 .79-.2H34a5.15 5.15 0 0 0 .68-.29l.12-.05a7.74 7.74 0 0 0 .68-.42l.14-.11a6 6 0 0 0 1.15-1.15l.1-.14a4.29 4.29 0 0 0 .42-.68l.06-.11a5.79 5.79 0 0 0 .29-.68.78.78 0 0 1 0-.14 5.06 5.06 0 0 0 .19-.79.24.24 0 0 0 0-.08h13.68l-7.92 10.06Z"></path>
</svg>
